HIERARCHY
ROOT Hips
{
    OFFSET   0.000000   0.000000   0.000000
    CHANNELS 6 Xposition Yposition Zposition Zrotation Xrotation Yrotation
    JOINT Chest
    {
        OFFSET   0.000000   8.007230   0.000000
        CHANNELS 3 Zrotation Xrotation Yrotation
        JOINT Chest2
        {
            OFFSET   0.000000  22.077100   0.000000
            CHANNELS 3 Zrotation Xrotation Yrotation
            JOINT Neck
            {
                OFFSET   0.000000  23.255100   0.000000
                CHANNELS 3 Zrotation Xrotation Yrotation
                JOINT Head
                {
                    OFFSET   0.000000  14.370100   1.956600
                    CHANNELS 3 Zrotation Xrotation Yrotation
                    End Site
                    {
                        OFFSET   0.000000  19.566000   0.000000
                    }
                }
            }
            JOINT LeftCollar
            {
                OFFSET   3.911900  19.017000  -0.467063
                CHANNELS 3 Zrotation Xrotation Yrotation
                JOINT LeftShoulder
                {
                    OFFSET  10.383700   0.000000   0.000000
                    CHANNELS 3 Zrotation Xrotation Yrotation
                    JOINT LeftElbow
                    {
                        OFFSET  26.662100   0.001193   0.000980
                        CHANNELS 3 Zrotation Xrotation Yrotation
                        JOINT LeftWrist
                        {
                            OFFSET  28.869000  -0.000059  -0.000082
                            CHANNELS 3 Zrotation Xrotation Yrotation
                            JOINT LeftFinger0
                            {
                                OFFSET   2.044650  -2.323450   3.252850
                                CHANNELS 3 Zrotation Xrotation Yrotation
                                JOINT LeftFinger01
                                {
                                    OFFSET   3.088130   0.000000   0.000000
                                    CHANNELS 3 Zrotation Xrotation Yrotation
                                    JOINT LeftFinger02
                                    {
                                        OFFSET   2.639460   0.000000   0.000000
                                        CHANNELS 3 Zrotation Xrotation Yrotation
                                        End Site
                                        {
                                            OFFSET   2.582190   0.000000   0.000000
                                        }
                                    }
                                }
                            }
                            JOINT LeftFinger1
                            {
                                OFFSET   8.364480   0.000000   3.252850
                                CHANNELS 3 Zrotation Xrotation Yrotation
                                JOINT LeftFinger11
                                {
                                    OFFSET   4.646930   0.000000   0.000000
                                    CHANNELS 3 Zrotation Xrotation Yrotation
                                    JOINT LeftFinger12
                                    {
                                        OFFSET   2.323470   0.000000   0.000000
                                        CHANNELS 3 Zrotation Xrotation Yrotation
                                        End Site
                                        {
                                            OFFSET   2.273050   0.000000   0.000000
                                        }
                                    }
                                }
                            }
                            JOINT LeftFinger2
                            {
                                OFFSET   8.364490   0.000016   1.078090
                                CHANNELS 3 Zrotation Xrotation Yrotation
                                JOINT LeftFinger21
                                {
                                    OFFSET   5.111610   0.000000   0.000000
                                    CHANNELS 3 Zrotation Xrotation Yrotation
                                    JOINT LeftFinger22
                                    {
                                        OFFSET   2.788150   0.000016   0.000000
                                        CHANNELS 3 Zrotation Xrotation Yrotation
                                        End Site
                                        {
                                            OFFSET   2.727660   0.000000   0.000000
                                        }
                                    }
                                }
                            }
                            JOINT LeftFinger3
                            {
                                OFFSET   7.899780   0.000015  -1.078090
                                CHANNELS 3 Zrotation Xrotation Yrotation
                                JOINT LeftFinger31
                                {
                                    OFFSET   4.646930   0.000000   0.000000
                                    CHANNELS 3 Zrotation Xrotation Yrotation
                                    JOINT LeftFinger32
                                    {
                                        OFFSET   2.323470   0.000000   0.000000
                                        CHANNELS 3 Zrotation Xrotation Yrotation
                                        End Site
                                        {
                                            OFFSET   2.273050   0.000000   0.000000
                                        }
                                    }
                                }
                            }
                            JOINT LeftFinger4
                            {
                                OFFSET   7.435090   0.000000  -3.252850
                                CHANNELS 3 Zrotation Xrotation Yrotation
                                JOINT LeftFinger41
                                {
                                    OFFSET   3.717550   0.000000   0.000000
                                    CHANNELS 3 Zrotation Xrotation Yrotation
                                    JOINT LeftFinger42
                                    {
                                        OFFSET   1.858770   0.000000   0.000000
                                        CHANNELS 3 Zrotation Xrotation Yrotation
                                        End Site
                                        {
                                            OFFSET   1.818440   0.000000   0.000000
                                        }
                                    }
                                }
                            }
                        }
                    }
                }
            }
            JOINT RightCollar
            {
                OFFSET  -3.911910  19.017000  -0.467062
                CHANNELS 3 Zrotation Xrotation Yrotation
                JOINT RightShoulder
                {
                    OFFSET -10.383700   0.000014   0.000000
                    CHANNELS 3 Zrotation Xrotation Yrotation
                    JOINT RightElbow
                    {
                        OFFSET -26.662100   0.001225   0.001091
                        CHANNELS 3 Zrotation Xrotation Yrotation
                        JOINT RightWrist
                        {
                            OFFSET -28.869000  -0.000020  -0.000085
                            CHANNELS 3 Zrotation Xrotation Yrotation
                            JOINT RightFinger0
                            {
                                OFFSET  -2.044650  -2.323490   3.252850
                                CHANNELS 3 Zrotation Xrotation Yrotation
                                JOINT RightFinger01
                                {
                                    OFFSET  -3.088130   0.000000   0.000000
                                    CHANNELS 3 Zrotation Xrotation Yrotation
                                    JOINT RightFinger02
                                    {
                                        OFFSET  -2.639460   0.000000   0.000000
                                        CHANNELS 3 Zrotation Xrotation Yrotation
                                        End Site
                                        {
                                            OFFSET  -2.582190   0.000000   0.000000
                                        }
                                    }
                                }
                            }
                            JOINT RightFinger1
                            {
                                OFFSET  -8.364480   0.000000   3.252850
                                CHANNELS 3 Zrotation Xrotation Yrotation
                                JOINT RightFinger11
                                {
                                    OFFSET  -4.646930   0.000000   0.000000
                                    CHANNELS 3 Zrotation Xrotation Yrotation
                                    JOINT RightFinger12
                                    {
                                        OFFSET  -2.323470   0.000000   0.000000
                                        CHANNELS 3 Zrotation Xrotation Yrotation
                                        End Site
                                        {
                                            OFFSET  -2.273050   0.000000   0.000000
                                        }
                                    }
                                }
                            }
                            JOINT RightFinger2
                            {
                                OFFSET  -8.364480   0.000000   1.078090
                                CHANNELS 3 Zrotation Xrotation Yrotation
                                JOINT RightFinger21
                                {
                                    OFFSET  -5.111620   0.000000   0.000000
                                    CHANNELS 3 Zrotation Xrotation Yrotation
                                    JOINT RightFinger22
                                    {
                                        OFFSET  -2.788160   0.000000   0.000000
                                        CHANNELS 3 Zrotation Xrotation Yrotation
                                        End Site
                                        {
                                            OFFSET  -2.727660   0.000000   0.000000
                                        }
                                    }
                                }
                            }
                            JOINT RightFinger3
                            {
                                OFFSET  -7.899780   0.000000  -1.078090
                                CHANNELS 3 Zrotation Xrotation Yrotation
                                JOINT RightFinger31
                                {
                                    OFFSET  -4.646930   0.000000   0.000000
                                    CHANNELS 3 Zrotation Xrotation Yrotation
                                    JOINT RightFinger32
                                    {
                                        OFFSET  -2.323470   0.000000   0.000000
                                        CHANNELS 3 Zrotation Xrotation Yrotation
                                        End Site
                                        {
                                            OFFSET  -2.273050   0.000000   0.000000
                                        }
                                    }
                                }
                            }
                            JOINT RightFinger4
                            {
                                OFFSET  -7.435090   0.000000  -3.252850
                                CHANNELS 3 Zrotation Xrotation Yrotation
                                JOINT RightFinger41
                                {
                                    OFFSET  -3.717550   0.000000   0.000000
                                    CHANNELS 3 Zrotation Xrotation Yrotation
                                    JOINT RightFinger42
                                    {
                                        OFFSET  -1.858760   0.000000   0.000000
                                        CHANNELS 3 Zrotation Xrotation Yrotation
                                        End Site
                                        {
                                            OFFSET  -1.818440   0.000000   0.000000
                                        }
                                    }
                                }
                            }
                        }
                    }
                }
            }
        }
    }
    JOINT LeftHip
    {
        OFFSET   9.783030   0.000000   0.000000
        CHANNELS 3 Zrotation Xrotation Yrotation
        JOINT LeftKnee
        {
            OFFSET   0.000063 -41.789100   0.000608
            CHANNELS 3 Zrotation Xrotation Yrotation
            JOINT LeftAnkle
            {
                OFFSET   0.000048 -41.133200  -0.000184
                CHANNELS 3 Zrotation Xrotation Yrotation
                JOINT LeftToe
                {
                    OFFSET   0.000000  -6.358960  14.674500
                    CHANNELS 3 Zrotation Xrotation Yrotation
                    End Site
                    {
                        OFFSET   0.000000   0.000000   3.913200
                    }
                }
            }
        }
    }
    JOINT RightHip
    {
        OFFSET  -9.783030   0.000000   0.000000
        CHANNELS 3 Zrotation Xrotation Yrotation
        JOINT RightKnee
        {
            OFFSET   0.000071 -41.789100   0.001239
            CHANNELS 3 Zrotation Xrotation Yrotation
            JOINT RightAnkle
            {
                OFFSET   0.000037 -41.133200  -0.000166
                CHANNELS 3 Zrotation Xrotation Yrotation
                JOINT RightToe
                {
                    OFFSET   0.000000  -6.358960  14.674500
                    CHANNELS 3 Zrotation Xrotation Yrotation
                    End Site
                    {
                        OFFSET   0.000000   0.000000   3.913200
                    }
                }
            }
        }
    }
}
MOTION
Frames: 4
Frame Time:   0.016667
  2.627050  89.537100  -0.143121  -2.888110 -17.865900   3.330990   0.334233   9.112800   2.623070   0.244077  18.231300   5.294170   2.841620   1.577460  -0.081673   4.677980   3.175200  -2.325910  -4.923490  -1.437880  -0.070950 -71.476300  27.235600  -7.389430  -2.775470  -9.803690 -11.440900  14.395900 -11.724500   9.885980  39.595400  34.221400 -63.702200 -32.294000  -0.003581   0.004005 -11.147000  -0.002587   0.003198 -24.269700   5.894650 -12.831400 -20.399900  -0.053188  -0.045605 -14.279900  -0.024513  -0.042496 -24.866300   1.210260  -2.609450 -24.894200  -0.106684  -0.111658 -16.579400  -0.030617  -0.098225 -26.234400   1.272280  -2.579770 -26.263100  -0.083340  -0.001407 -17.491300  -0.024827  -0.074404 -27.055600   1.309100  -2.561310 -40.627300  -0.039581  -0.002346 -27.057800  -0.000681  -0.041828   9.333020  -0.884879   7.407200  32.607100  -3.403860  46.483700 -44.083700 -22.487500  59.593400 -67.236900  35.713200  31.031400 -23.239100  57.519300  66.259700  82.437100  -0.002431   0.004022  48.243100  -0.000891   0.001397  -0.859186  -0.371405  23.374800   0.003368  -0.006349  -0.012777   0.002348  -0.003817  -0.008848   5.937210   0.529877   5.088370   5.960820  -0.004095   0.000202   3.969890   0.000000  -0.009728  71.655300  -5.160970  -1.708560  71.732300   0.004511  -0.003125  53.799200  -0.005244  -0.003993  86.645900  -9.984600  -0.582144 110.000000  -0.008012  -0.000357  80.000000  -0.001187   0.003646   2.917360  19.100800   4.359710   0.250080   0.155387   4.789110  -4.176940  -1.816250  -2.299120  -0.000000   0.000000   0.000000   3.960710  16.684400  -7.395880  -2.290080   7.168280 -11.465600   1.406440  -6.607670  -1.128300   0.000000   0.000000   0.000000
  2.619470  89.537200  -0.130140  -2.928280 -17.839700   3.223940   0.331695   9.094250   2.614240   0.241294  18.194100   5.276280   2.863960   1.568380  -0.081433   4.714660   3.156520  -2.394900  -4.921080  -1.431670  -0.093620 -71.442000  27.305200  -7.465510  -2.762160  -9.853900 -11.546100  14.412600 -11.738300   9.838090  39.713800  34.316100 -63.740100 -32.230500  -0.005671   0.004136 -11.115200  -0.000530   0.003106 -24.196700   5.902110 -12.886900 -20.342700  -0.054179  -0.047075 -14.239800  -0.025253  -0.043423 -24.825400   1.231960  -2.661790 -24.854100  -0.122305  -0.125693 -16.552800  -0.037422  -0.110231 -26.172500   1.294470  -2.631940 -26.202100  -0.081816  -0.001407 -17.450700  -0.024681  -0.073255 -27.009000   1.332410  -2.612980 -40.558700  -0.037738  -0.002346 -27.012100  -0.000710  -0.040968   9.345180  -0.892435   7.371290  32.614400  -3.326310  46.529700 -44.157300 -22.521500  59.625800 -67.308700  35.666300  31.074500 -23.182300  57.408700  66.188700  82.449300  -0.002402   0.004123  48.251300  -0.000875   0.001379  -0.640612  -0.277837  23.386400   0.001683  -0.006634  -0.013038  -0.015972  -0.003655  -0.009026   5.932910   0.553246   5.358360   5.960350  -0.004386   0.000229   3.969590  -0.000210  -0.009972  71.625400  -5.163630  -1.712170  71.702600   0.004631  -0.003277  53.776900  -0.005309  -0.004121  86.619300  -9.984460  -0.586724 110.000000  -0.007942  -0.000331  80.000000  -0.001127   0.003646   2.924170  19.077300   4.359060   0.250705   0.192552   4.829280  -4.166520  -1.849090  -2.246770   0.000000   0.000000  -0.000000   3.971070  16.664800  -7.357810  -2.300080   7.154850 -11.435400   1.407320  -6.597170  -1.092030   0.000000   0.000000   0.000000
  2.604110  89.537400  -0.115632  -2.972960 -17.815800   3.099030   0.329479   9.075190   2.610610   0.238329  18.155900   5.268900   2.884970   1.560640  -0.081194   4.749140   3.140580  -2.466010  -4.920770  -1.425020  -0.128006 -71.409300  27.364000  -7.556060  -2.732100  -9.871000 -11.663500  14.489100 -11.754700   9.820880  39.788300  34.389900 -63.755100 -32.178100  -0.005969   0.004361 -11.089000   0.002165   0.003004 -24.150700   5.911090 -12.935400 -20.308600  -0.054321  -0.047285 -14.215900  -0.025358  -0.043555 -24.802800   1.254230  -2.712310 -24.832800  -0.124792  -0.127698 -16.538600  -0.039889  -0.111947 -26.134900   1.317020  -2.682360 -26.165800  -0.075275  -0.001407 -17.426400  -0.023663  -0.067604 -26.976300   1.356170  -2.662840 -40.511700  -0.031857  -0.002345 -26.980800  -0.000738  -0.035418   9.358660  -0.900021   7.321160  32.609400  -3.234860  46.571700 -44.243200 -22.571600  59.662500 -67.323100  35.612400  31.076200 -23.126000  57.298100  66.118500  82.462700  -0.002373   0.004221  48.260200  -0.000858   0.001361  -0.337481  -0.146671  23.398000  -0.000002  -0.006903  -0.013304  -0.039580  -0.003497  -0.009203   5.933030   0.570431   5.472540   5.960280  -0.004678   0.000244   3.969550  -0.000423  -0.010206  71.603200  -5.165600  -1.714810  71.680500   0.004744  -0.003425  53.760400  -0.005375  -0.004245  86.615500  -9.984330  -0.587378 110.000000  -0.007869  -0.000307  80.000000  -0.001067   0.003647   2.930320  19.066400   4.358620   0.254389   0.215465   4.876170  -4.151440  -1.880760  -2.177590   0.000000   0.000000   0.000000   3.998510  16.643900  -7.330770  -2.316760   7.144570 -11.390200   1.403970  -6.589060  -1.053440   0.000000   0.000000  -0.000000
  2.586240  89.537700  -0.098223  -3.022710 -17.793200   2.954730   0.327374   9.054730   2.607950   0.235485  18.114900   5.263500   2.901600   1.551730  -0.080975   4.776320   3.122400  -2.517990  -4.922700  -1.415280  -0.148999 -71.389600  27.397200  -7.657640  -2.675600  -9.827050 -11.791400  14.649200 -11.779100   9.831380  39.802500  34.403100 -63.734500 -32.158000  -0.000129   0.004614 -11.079100   0.003297   0.002896 -24.154200   5.921060 -12.957300 -20.313800  -0.022981  -0.017521 -14.219600  -0.011284  -0.016754 -24.840900   1.269730  -2.742640 -24.871700  -0.092761  -0.091980 -16.564500  -0.030957  -0.081251 -26.159300   1.332360  -2.712660 -26.191100  -0.062263  -0.001406 -17.443200  -0.020222  -0.055577 -27.026300   1.373330  -2.692760 -40.588100  -0.022718  -0.002345 -27.031700  -0.000753  -0.023541   9.371650  -0.897205   7.300480  32.611900  -3.148250  46.588000 -44.393100 -22.639900  59.703900 -67.203000  35.544800  30.929600 -23.169000  57.344300  66.167400  82.467700  -0.002340   0.004310  48.263500  -0.000838   0.001339  -0.248328  -0.108952  23.471100  -0.000002  -0.007150  -0.013582  -0.045749  -0.003333  -0.009374   5.949180   0.575850   5.468860   5.975610  -0.004975   0.000244   3.979750  -0.000629  -0.010429  71.576100  -5.168340  -1.718560  71.653700   0.004841  -0.003579  53.740300  -0.005443  -0.004372  86.651600  -9.984200  -0.581077 110.000000  -0.007802  -0.000272  80.000000  -0.001007   0.003628   2.941570  19.082700   4.345920   0.257958   0.200826   4.926300  -4.129930  -1.902540  -2.082790  -0.000000   0.000000  -0.000000   4.030160  16.621100  -7.331110  -2.343400   7.135070 -11.310100   1.396160  -6.582320  -1.006740  -0.000000   0.000000   0.000000
